<?xml version="1.0" encoding="utf-8"?>
<svg version="1.1" xmlns:xlink="http://www.w3.org/1999/xlink" width="19px" height="19px" xmlns="http://www.w3.org/2000/svg">
  <g transform="matrix(1 0 0 1 -459 -71 )">
    <path d="M 18.5521885521886 14.2020202020202  C 18.8507295173962 14.5005611672278  19 14.8630751964085  19 15.2895622895623  C 19 15.7160493827161  18.8507295173962 16.0785634118967  18.5521885521886 16.3771043771044  L 16.3771043771044 18.5521885521886  C 16.0785634118967 18.8507295173962  15.716049382716 19  15.2895622895623 19  C 14.8630751964085 19  14.5005611672278 18.8507295173962  14.2020202020202 18.5521885521886  L 9.5 13.8501683501684  L 4.7979797979798 18.5521885521886  C 4.49943883277217 18.8507295173962  4.13692480359147 19  3.71043771043771 19  C 3.28395061728395 19  2.92143658810326 18.8507295173962  2.62289562289562 18.5521885521886  L 0.447811447811448 16.3771043771044  C 0.149270482603816 16.0785634118967  0 15.7160493827161  0 15.2895622895623  C 0 14.8630751964085  0.149270482603816 14.5005611672278  0.447811447811448 14.2020202020202  L 5.14983164983165 9.5  L 0.447811447811448 4.7979797979798  C 0.149270482603816 4.49943883277216  0 4.13692480359147  0 3.71043771043771  C 0 3.28395061728395  0.149270482603816 2.92143658810325  0.447811447811448 2.62289562289562  L 2.62289562289562 0.447811447811448  C 2.92143658810326 0.149270482603815  3.28395061728395 0  3.71043771043771 0  C 4.13692480359147 0  4.49943883277217 0.149270482603815  4.7979797979798 0.447811447811448  L 9.5 5.14983164983165  L 14.2020202020202 0.447811447811448  C 14.5005611672278 0.149270482603815  14.8630751964085 0  15.2895622895623 0  C 15.716049382716 0  16.0785634118967 0.149270482603815  16.3771043771044 0.447811447811448  L 18.5521885521886 2.62289562289562  C 18.8507295173962 2.92143658810325  19 3.28395061728395  19 3.71043771043771  C 19 4.13692480359147  18.8507295173962 4.49943883277216  18.5521885521886 4.7979797979798  L 13.8501683501683 9.5  L 18.5521885521886 14.2020202020202  Z " fill-rule="nonzero" fill="#d7d7d7" stroke="none" transform="matrix(1 0 0 1 459 71 )" />
  </g>
</svg>